/* XPM */
static char *_bae18fc41604b2fc29ed9692a9f38122gIM3RuSBXYENZhD[] = {
/* columns rows colors chars-per-pixel */
"64 64 203 2 ",
"   c #1F1B3B",
".  c #201C3E",
"X  c #1F1C42",
"o  c #221D43",
"O  c #221F4B",
"+  c #221F51",
"@  c #1F2244",
"#  c #1F2549",
"$  c #1F294D",
"%  c #1F2D52",
"&  c #1F3157",
"*  c #1F3359",
"=  c #1F385F",
"-  c #212145",
";  c #23224C",
":  c #21294E",
">  c #242153",
",  c #212C54",
"<  c #23225E",
"1  c #23225C",
"2  c #25235D",
"3  c #26235C",
"4  c #24235E",
"5  c #26245F",
"6  c #24225B",
"7  c #232C59",
"8  c #203057",
"9  c #213057",
"0  c #21335B",
"q  c #20365D",
"w  c #21335C",
"e  c #1F3D66",
"r  c #1F3D65",
"t  c #1F3D6C",
"y  c #242361",
"u  c #252363",
"i  c #252461",
"p  c #252462",
"a  c #252463",
"s  c #262463",
"d  c #272561",
"f  c #242464",
"g  c #262564",
"h  c #252467",
"j  c #262567",
"k  c #262464",
"l  c #252C63",
"z  c #252569",
"x  c #272669",
"c  c #26266B",
"v  c #262568",
"b  c #27266D",
"n  c #27266E",
"m  c #26266B",
"M  c #282769",
"N  c #28276F",
"B  c #28276C",
"V  c #252B6B",
"C  c #2B2B6F",
"Z  c #233562",
"A  c #203A62",
"S  c #203F67",
"D  c #213A64",
"F  c #25356E",
"G  c #223D69",
"H  c #272770",
"J  c #272670",
"K  c #252671",
"L  c #272772",
"P  c #282774",
"I  c #282771",
"U  c #272875",
"Y  c #262973",
"T  c #292973",
"R  c #282976",
"E  c #282873",
"W  c #26277C",
"Q  c #27297D",
"!  c #292A7B",
"~  c #243375",
"^  c #2E3172",
"/  c #243A72",
"(  c #283A74",
")  c #26357C",
"_  c #2C337A",
"`  c #263C7D",
"'  c #2B3C7C",
"]  c #1F416B",
"[  c #1F446E",
"{  c #1F446E",
"}  c #1F4975",
"|  c #1F4975",
" . c #1F4D7C",
".. c #21446F",
"X. c #21426D",
"o. c #204672",
"O. c #224473",
"+. c #204976",
"@. c #214976",
"#. c #24437D",
"$. c #224B79",
"%. c #214F7D",
"&. c #214C7B",
"*. c #21507F",
"=. c #272A81",
"-. c #292A84",
";. c #2A2D8A",
":. c #273385",
">. c #2A3385",
",. c #273C84",
"<. c #2A3C84",
"1. c #26358A",
"2. c #29338D",
"3. c #263A8C",
"4. c #2B3B89",
"5. c #313481",
"6. c #343A8B",
"7. c #2B3590",
"8. c #273C91",
"9. c #293C95",
"0. c #293E98",
"q. c #343B94",
"w. c #353D9D",
"e. c #383E9B",
"r. c #373DA1",
"t. c #383FA3",
"y. c #1F5284",
"u. c #1F578D",
"i. c #1F588E",
"p. c #1F5D95",
"a. c #254485",
"s. c #244B83",
"d. c #25458B",
"f. c #2D408B",
"g. c #244C8C",
"h. c #2A4A8C",
"j. c #2B4484",
"k. c #30408E",
"l. c #215282",
"z. c #205284",
"x. c #225284",
"c. c #205588",
"v. c #22558A",
"b. c #22598D",
"n. c #254494",
"m. c #294395",
"M. c #254C94",
"N. c #2C4A95",
"B. c #26469A",
"V. c #29449A",
"C. c #254C9C",
"Z. c #2B4B9C",
"A. c #324495",
"S. c #34429D",
"D. c #314A9A",
"F. c #245494",
"G. c #2A5194",
"H. c #225D93",
"J. c #24529D",
"K. c #29549B",
"L. c #245C9B",
"P. c #2A599F",
"I. c #226196",
"U. c #22649B",
"Y. c #23689F",
"T. c #2F47A4",
"R. c #264FA1",
"E. c #2A4DA2",
"W. c #3544A5",
"Q. c #3941A6",
"!. c #344AA5",
"~. c #3647A8",
"^. c #3A43A9",
"/. c #354CAA",
"(. c #384CAD",
"). c #2554A3",
"_. c #2B53A5",
"`. c #245AA5",
"'. c #2B5BA4",
"]. c #2D55AB",
"[. c #245CAA",
"{. c #2C5BAB",
"}. c #3053A7",
"|. c #3253AC",
" X c #2D5DB2",
".X c #3655B1",
"XX c #325AB2",
"oX c #2463A3",
"OX c #2963A7",
"+X c #2469A4",
"@X c #2563AD",
"#X c #2963AB",
"$X c #266AAC",
"%X c #296AAE",
"&X c #2665B1",
"*X c #2B63B4",
"=X c #256BB3",
"-X c #2A6AB4",
";X c #2D67B8",
":X c #2A6BBA",
">X c #3060B6",
",X c #2970B6",
"<X c #2C71BC",
/* pixels */
". . . . 0 *.@ } @         .       . . . o . o o O + ; o o o o o o 3 C 3 o d C > > o 1 o . o X + y X X         X O + + + O + z K ",
". . o . @.@.@ }                   . . . o . o > O o O ; o o o o o o C ^ C d M 3 o . o 3 o     X O 1 o .   X z O X f + + u + z u ",
". . . . @ 8 l.$   X       . . . . . . o . . O O o ; > ; o o o o o o o o O 3 M d o o . y < f f X X + X O u z u O + O X < n f + + ",
". ; 8 ..: q ]     -         o . . . o o . . O o > > ; > ; o o o o o o o P M I I 4 o o 4 g + < z < o X + + + O O + X + + f n < X ",
". X.*.y.8 - r   X O           o . O + f O . o ; 3 3 3 ; ; o o o o o O O M N N 3 J i > f 4 1 O < + o o X + O o O o o + . O j + O ",
"  ] ..8 .         + X X   o X   o j f + 5 > > o M > 3 3 3 o o ; 3 O 3 > o > 3 o f b y > y O   + + X o   O < + + X O s 3 + + s + ",
". 0 *.X.@ .       + < O X +     . O 5 s 5 d O o ; ; O ; O o ; 3 d > > O O O O > g < + O 3 + X + + X   X + < + + n z > O O + x + ",
". . @ ..*.@ @   X X + + X + O o . O j j T T B g O . o > o ; C 3 > 3 O o > o o O + O 1 y y O X X + o X o + o + z n n O O s + O O ",
"o o $...q X.- . X   o > o > X X o y I R N O ; > d 5 ; > > ; o 3 3 O 3 o ; O O O O + 3 o 1 + 1 X O o O 4 O X b y f + 3 O O O + o ",
"o o *.D q &.9 @.F.e   >   O O 1 O + y N s M 3 3 3 d - o o o o ; O o o O o o o . o O > o O X > < . + + + + < + x + + > o O N T o ",
"o o O.D : X.v.O.- &.> 4 O y 1 > 5 M M B M g M > o O o o o ; > ; o . o o o o . o o o y > > O O + O + f y z f 4 o O y y O g R o o ",
"o - o . . - b.7 @ b.l 4 g > O O o . o 3 5 + o o ; 7 F <.K.%X%XC.h.OXOXA.) 4.) s o . o O O O o o + X y y O x O + < + O + 5 M o o ",
"- . . 9 b.7 x.9 o o o d x ; O o o o o o o ; Z v.K.P.n.).@X@X&X=X%XOX@X@X_.V.[.`.g.0 X X o o o . o + J J i 4 > > o o . O 3 > o o ",
"o o : *.O.b.&.- . o O 5 4 O o o o o o : G ) ).].m.q.=X-X=X,X-X=X-X-X%X$X=X%X9.3.M.s.Z Z # o o X o y y z i > O O o . o O o O o . ",
"o - &.I.w O.v.o . o > > o o : - o 7 v.L.'.Z.&X;.V.oX$X$X%X%X$X+X+X+X+X+X+X%X[.n.;.[.M.`.`.F.l o - V < 4 N O . . o o O o O > 5 O ",
"o - &.b.O.9 v.o o o O ; : : - l #.`.M.;.7.=X=X=X%X$X,X-X;XOXb.U.U.'.OXOX+X+X%X=X=X=X@X7.2.V.oX` 7 ; V V 4 o o O O > + + 3 o > s ",
"o . - Z - D h.- o . o ; 7 ( oX@X[.&X0.).OXoXL.U.OX;XXX(.(.XX%X%X-X<XXX(.A.h.OX%X-X#X&X@X].m.&X[.oXL.w ; > ; O > > > ; > g O o > ",
". . . . . D b.- o . : w F ).V.2.R.&X&XF.x.H.H.N.|.(.(..X;X<X>X;X;X>X<X;X.X!.(..XXX&X*X X[.&X=X_.9.3.F.F / 7 o o ; > 6 3 3 4 o o ",
"o . ; ; o X.*.o o - v.H.OX=X'.[.`.).F.oXP.D.A.|.*X{.].@XOX%X%XD.D.%X%XOX%X.X>X<X(.(..X>X:X&X{.[.[.`.$X@X#XP.; o . o > 3 + O o . ",
". - > 3 . O.X.- o Z K.n.'.=X`.`.oX+X{.!.W.t.Q.XXOXO.F ,.N.{.Z.7.2.n.'.h.^ O.N.;X>XQ.t.(..XXX:X&X[.).&X[.Z.[.) o o . o N y + o . ",
". o 3 ; . X.: h.`.oX@XC.d.L.H.L.'.|.~.W.r.Q.r.#Xu.a.) ;.B.).n.1.;.m._.V.! l &.H.#Xr.t.^.^./..X X&X#X&X_._.=X@XL.%.o o o x < o X ",
". . . . . - : OX;.Z.=Xv.v.H.K.].(.^.t.r.Q.Q.].#X) B.R.;.C.R.8.=.-.m.).Z.;.M.#.9 U.K.^.t.W.Q.r./.XXXX*X*X`.=X_.! oX; o X . o O X ",
". . . . 9 x.G.%Xm.<.L.b.H.h.|.W.t.^.Q.W./. X&XV.;.E.).8.R.C.~ l V ,.).R.9.R.g.3 / U.'.!.r.r.r.r.W.|.|.*X;X%X>.V.=XP.z.7 . . . . ",
". . . . ..l R K.oXH.c.&.Z N.r.r.W..X*X:X:X[.3.;.;.R.).C.R.R.3.1.:.0._.R.n.).B.-.! :.`.+X@X[.B.3.5.5.Z.N.K.b.U.@XR.-.F G .   . . ",
". . . o O.) ;.:.b.b.x.D , s._.'.&X@X{.E.7.-.-.-.;.0.B.C.).).n.).`.m.).C.C.C.8.=.-.;.;.7.B.R.`.[.M.g.#.Z / v.H.L.1.-.) G X   . . ",
". . , L.@X@X4.L.b.L.' h.( 4 T _ Q -.-.;.-.=.-.-.-.;.0.).[.[.[.[.[.[.[.).).C.7.=.=.=.;.;.-.-.;.-.=.R > ( }.S.[.P.[.9.[.U.v.$   . ",
". . ` 1.;._.oXI.{.(.(.|.-X_.9.-.=.=.-.-.=.-.-.-.=.=.).[.@X@X).n.8.[.@X@X@X).;.=.=.=.-.1.;.-.-.=.=.8.g.#X|././.].`.[.C.Q l D   . ",
". > n.9.;.M.P.-X(.^.^.Q.;X].).C.=.=.=.=.=.=.-.-.-.1.[.R.@X@X`.[.[.[.@X[.).@X1.=.=.=.=.=.-.;.;.-.C.C.M.@XQ.Q.t./.#X[.Z.-.3.O.. . ",
"; F._.`.).L.#X.X^.^.Q.Q.>X>X7.9.).8.=.=.=.-.-.-.1.).).3.@X@X1.1.3.3.`.[.8.[.).=.=.=.=.=.=.=.0.).n.=.M.`.r.r.r.t.|.[.[.].`.s.%.o ",
"y Z.V.V.g.oXXX^.^.^.Q.e.>X*X7.-.8.R.R.B.8.8.8.R.).).C.B.[.@X1.=.:.:.oX).B.R.).`.n.3.3.3.B.C.).1.Q =.J.).r.w.r.r.^.[.[._.n./ G o ",
"N 0.).#.I.OX(.Q.^.^.Q.Q.*X X;.-.;.-.C.[.[.).[.[.B.1.-.B.[.@Xn.1.=.a.@X`.M.z ~ n.`.`.).).).R.=.=.=.=.C.).q.w.r.r.Q.!.P.+Xd.s.0 o ",
"> F O.; I.OX^.Q.Q.Q.Q.|.#XE.;.-.-.8.).8.[.R.8.=.=.=.-.0.`.@XM.1.:.C.=X[.8.K z K =.1.C.).8.).1.=.=.=.n.).V.w.r.r.r.e.F.`.l G , . ",
"- - O.9 I.j.Q.^.Q.Q.XX#X[.;.-.=.=.=.[.8.8.).n.W -.-.-.2.[.%XJ.1.1.).=X`.2.-.2.;.=.n.C.3.n.).=.W =.=.=.).).C.w.W.r._ G H.Z $.o o ",
"> - Z X.X.7 ^ q.S.{.oX).;.;.-.-.=.=.).C.1.1.).C.-.-.-.;.[.@X@Xm.0.&X&X`.-.-.;.-.C.).=.1.n.J.=.=.=.=.=.W R.R.C.,.C ; ; e D w o o ",
"^ M - Y.OXI.G ; G ; 7 T ;.;.-.-.=.=.[.B.=.1.C.).R.n.2.2.R.&X@XL.p.@X@XF.T ) a.M.).C.1.=.n.p.W =.-.=.=.W Q 1.z r - w b.I.H.. o o ",
"3 C ; - O.I.Y.U.v.w o y -.;.-.-.-.8.[.3.W :.3.J.].C.C.J.@X=X=Xf.V.&X$X`.G.s.#.F.).3.1.Q 3.`.1.=.-.=.=.=.=.;.~ y.U.U.I.] o . o o ",
"; C O ! g o s.U.I.I.I...l ^ -.>.B.B.).1.-.;.2.).C.[.V.>.}.<X<X~.~.:X*X].q.Z.F.#.C.1.-.Q K i.n.n.1.=.=.1.n.p.p.p.I.#.- . . o o o ",
"d d d d C O o - *.I.I.b.v.&.( j.3.C.g.W -.;.-.].].E. Xw./.:X:X/.}.:X&XW.S. X|.M.C.Q =.Q W d.M.3.B.8.M.C.u.p.u.| @ . . o o > o ; ",
"! P T P C + O o - X.v.$.X.*.I.j.`.C.Y =.;.;.;.`.{.Q.{.XX~.;X:X|.].:X*XW.]. XW.].[.Q W =.W =.B.R.B.[.u.t y.y.r X . . o o > 3 O o ",
"+ + M ! d o o ; - - G *.*..., b.oX2.=.=.-.R D.*X|.W./.:XW.;X:X>X X:X*Xr.&X~.W.T.[.B.W W =.=.;.[.).Q t | | t X X o . o > d + ; o ",
"+ O O 3 T d g + > ; . o Z x.w - &.U.F 2 Z s.#X/.Q.^./. XA.oXK.).].[.*X/. XW.W.w.T.[._.:.Q 3.).R.V & &.0 . . o . . ; j x + O o o ",
"o o o o g T d + > o . 9 x.*.b.x.v.H.H.A $.H.A.Q.Q.t.(.'.v.L.oXoX`.oX`.`.'.W.r.r.r.W.&XM.t L.p.u. .%.} @.; . . o o M M O + O o o ",
"d O . o + M + + o . . v.O.- ; X.b.I.U.H.w ^ S.Q.W.XX{.@Xn.>.`.`._.`.) d.`.M.C.0.W.w.w.F u.i.i.b.S @ . X.*.. . . M M + 5 ; > . o ",
"; d d 3 M d + + o . . 7 O.: o o - l.U.U.H.6./.XX{.{.0.0.;.;.[.[.[.[.;.-.3.:.M.g.N.f.C u.u.p.y.- .   - X.: . . o T g s O O 3 o O ",
"o o d B g B + + O o O o w &.Z : o . S Y.+XP.Z.k.>.].2.7.). X[.[.[.[.[.R.-.1.C.z , D +.p.U.r . . @ * @.0 . . o + g O + O O 3 o O ",
"o o B + d + g + + 5 + O o o . o - 0 = ..+X+XH.F =.;.R.[.[.[.).8.8.R.).[.[.B.;.=.F u.U.U.X.* 0 o   . . . . o O + + d M + > > o > ",
"o o T M + O o + j j > O ; - . . - Z o - G U.Y.l ;.[.@X`.n.-.8.R.R.3.;.n.[.@X).;.V p.I.X.-   w - . o o ; o o 5 + O O O d 5 O O o ",
"+ o + P d + 5 O o C M g g o o . : 0 o X.A l.I.g.).&XC.:.m.[.&X*X[.[.J.8.1.C.@X).M.U.y.= r   & , o O 3 O + d + 5 + 3 o 5 ; o . . ",
"M + + g + d + + + O g P M g + o o 0 w - . : b.+X`.).1.Z.*X:X*X*X&X*X[.L.g.2.R.'.OXI.: . - Z 7 O > I + g 5 O o o O 5 3 5 O o . o ",
"O g 5 O o O + O O 3 ! d g T o + o o w o . . @.Y.#.b C.&XXXt.r.r.r.t.r._.oXs.> O.Y.$.. . o Z o o d 4 o > > O . O O O + > . . o . ",
". o O O O o o o 3 3 ! g ! 5 P d o o , , - o , I.U.: @X].t.^.~.}./.~.W.Q.|.oX- I.I., . o : 9 o 3 > 4 f y + . y o o o O + . . . . ",
". . + g O o O O d M ! ! 5.! M g j O o : - . ; &.U.O.N.Q.].:X;X].].*X:X/.Q.D.O.U.@.; - - : ; ; ; 5 o . 3 O o y . . o 4 + . . . . ",
". . m + + + d I + + ! + W d + ! M o o o . . , Z H.U.e./.-X*X Xe._ XX&X;X(.A.Y.b.q , o o ; ; o o o . o O > > 4 + + + + o O . . . ",
". o T x + T B O + B P 5.! ! ! g g > + o o . q - X.oX].Q.;X XXXw.' }. X*X^.XXY.G - q o o ; 3 ; ; O O > o o o o + + + O . . . . . ",
". J J O o + d + -.d M + d 5 + O T d 5 o . . 7 l ; U.-XW.^.t.*X XXX;XQ.^.^.%XI.: 9 9 . . o o ; ; > o o o o . . . O + O + . . . . ",
". O O O + d d T N P + + g + O + o M > ; . o + 5 ; O.%X/.^.W..XXXXXXX^.~.(.%XO.- - o o o . - . . . o o D 0 - . . . o . . o . . . ",
"O O + j + O P W C + o B O o o + O + + + O + + + ; - OXP.e.^.^.^.t.^.^.XXP.I.- . - - - - . o . . . . @ &.*...@   . . . . . . . . ",
"3 M + o O 5 T W B + M + o o O + d o d d + d d x O - X.OXh.6.e.^.^.(.XXOXb.v.b.b.b.b.x.&.&.v.O.q :   . q o.& [     .   . .   8 y.",
"3 4 + f 3 j + + g + M O . o O + + o + M d M T g o ; - X.I.Y.OXY.oXH.x.I.I.I.b.x.$.*.x.b.b.U.Y.Y.I.*..   .   [ $ # r * X   - o.X.",
"+ + 4 O . 3 O + + o + + O O O d x + d g M + g P d ^ ^ ^ , &.I.P.U.I.I.v.D - . - o . - q v.9 o X.I.Y.b.. . & y.. = { | $.. e | $ ",
"o x b z + u o < o O z + + o O g P M + B 3 o O d ! P M P . - I., o ; > > ; ; o o - q I.- q X.. . : c.I.b.u.} $ . , | %.c.X r q . ",
"+ 4 z b < + O + X J J < O O + O + N T g d o o o M C d + ; ; I., o d d d 3 ; 3 3 6 ; b.*.@.# . . @ . % o.%.*.*.u.u.b.i.u.l.c.= . ",
"z b 1 f + u < O + J .   . o g + o . . o d O o O + C d T ^ O.I.; o o o o o . . o . . - : @ .   . .   . . .   - # : & : @ S @.X.  ",
"W g 1 X + + + X     .   . . O g + o . . O 3 O 3 + ! d + 3 A.7 o o o o o o o . o . . . . . . . . . . . .       .         A @.@.. "
};
