/* XPM */
static char *_ad68d79ec8f491ef363df21ffd3f023MS5zdry15OrE5Zq8[] = {
/* columns rows colors chars-per-pixel */
"64 64 43 1 ",
"  c #1D1D1D",
". c #242424",
"X c #2C2C2C",
"o c #343434",
"O c #3B3B3B",
"+ c #002D4A",
"@ c #003152",
"# c #083858",
"$ c #053D61",
"% c #003F68",
"& c #004978",
"* c #434343",
"= c #4B4B4B",
"- c #545454",
"; c #5B5B5B",
": c #646464",
"> c #686767",
", c #6C6C6C",
"< c #716F6F",
"1 c #737373",
"2 c #787777",
"3 c #7B7B7B",
"4 c #807F7F",
"5 c #004E81",
"6 c #005187",
"7 c #025489",
"8 c #005C97",
"9 c #025F9B",
"0 c #00609E",
"q c #349ADD",
"w c #44A7E7",
"e c #838383",
"r c #888787",
"t c #8C8B8B",
"y c #908F8F",
"u c #949393",
"i c #989797",
"p c #9B9A9A",
"a c #A09F9F",
"s c #A2A2A2",
"d c #AAAAAA",
"f c #A3D5F6",
"g c #BDE3FB",
/* pixels */
",13,<<1,::,>>,,111111433332343311133333323322323113111,,1,,,,,,1",
",,234223e4eerrtttyyuuyippypppiyuiuipiiiuuuutttuutetyuuuuute1e3,,",
",13,,<:>,>:>>,12<,:;,,,,:>,12,11,>,1,333eeeteett3eee333ee331121,",
",3,-**OoXOooooX..........X.XooO***=****oOOOOoOOO*===-==;;;;;:131",
",4<ooooX*==OooOoO*OooXX==XooXoXXXXX.....XXXXXXX.XoOOoXOoXXXO*,3,",
",e,OXOOX;3:O.OOo-1-*OOO:2OXoO**O*-=XO=XXOOoXO=OO*Xo*ooOoO*O O1e,",
",e>OXoO =t2=.oOX13OXO*X*3;XXO=OX>1Oo*,XXOOXX-:O=-oXOX;*.OOO O3e,",
"1e>oXOoX=3t>oooO4,OXO*Oo12= o*XO1,oO;1.XOOXX1,XO,=Xoo,O.oOO O3e1",
"2e:o.OOXO>u2*.o:r=OXO**X;2,.ooX:e-XO,:X.*O.=e*.o::OX:2oo**O O3t1",
"2e>OX*Ooo-eu:O*e3*oXO*;oo<r>oX-3eO.*e,oXoO.;eXXO;,Oo1;Xo**O.Oet>",
"ee,OX**oOo;uu=Ot,OX o*,=oo3t3>14,OX*ee*oXoXe3.XO==*,2OXO*=O Oet1",
"ee:*X***ooo>iy2r;oooXo,1*.O>ee3e*Xo=1e3*OXop2XXO=*;3:oOO*=O oey,",
"3t,OX=**oooo;euy2=O*X.X*-O.o=3iu*Xo*;-et1=;u3XXo*-31*oOO==O.*eu1",
"eu,*X*==*OoOo=eut3,;-OOXXOo.*-i3*ooo.Xo:tytteoXO=eu:oOO*==OXOtu,",
"ey1*.*--*OoOOo*;13re2,:=ooooo=u3*XoX,=OXo:yuu*X*ti2OXOO*-=OX*ei3",
"3t2*X*=;-*OOooo*-:3tte1,:*O*X=i2OXX-3:OXXo:ep,*eu1*XOO*=;-OX*3i1",
"ey3*o**==*OOoXooo*--,ut3<,-*o=u2OXX<3=oXO*O2ut4ie:XoOO*-;-Oo*tu1",
"3ye*o******ooXXXoooO=;4tr11=*:u1*.o3;*XoOOX,uiit>oXO**=--;*XO3t1",
"eue*X*OO*=oooooXoOOOoo=;et3<;,i,O.o3=OXooo;1ry2;XoOO***-;;OXO2u1",
"ts3*XoOO==ppuoOOo*OOOXXo=ee:>1i1=oo;OXo;>13ee,-oooOO*==;;-*XO1y,",
"rp3O.oo*-3---pOo**-=OOooXO43<1i3>OoOOO>3eee1-OooOO**==;;;-*XO1y1",
"3s1O.ooO4,$07=p*==--=*Ooo.=e11i3,*ooo,et41*oXXooO**=-;;;-;*Xo1y,",
"3p1O.XX,:#8gf&=1*=-;;=OOOO.=erie1:oO2tt,-ooXXoO***=--:;;;-*XX:t1",
"3p1* oO3;+0wq&=e==;:;-=OoOoO>3ee3-=1t4-*XXXooO***===---;;-*Xo:t1",
"3u1* XX;-@600&=3O=;:;--*OOoX;3ur1-132*OXXooOO*====**=====-*Xo:t1",
"3ue=.Xo*3;+@@-:*=-;--=-=*oo.-1ur11r2=OXXOOOO***=**OOO*O===OXo,y1",
"3ue=XXo**<;>:e-=---;-*=**oO.=,tr34t;OXXOOO**====*O=*iayo*O*Xo1u,",
"3u2*XooO==epu;====>=*O=*oooX=:yr3t:*O.OOO*======O==4;:-yooOXo2u2",
"eu1*X**=*=*==;:==:;apyoOoXoX=>teee=OXXOO***==;;**=t<$06=rXo.o2u1",
"3s2*X*==;->:,>;-:;t;-=yXoXoX*,try3*OXoO***==;;-*Oe,#8gf&O=..X1u1",
"ei1*X*=;>>:,,>:;-t1#07*rXXXX*>tet,*OXoO**=-;;;-*-u>+0wq7*;X .1u1",
"3i1*.*;:,113e4:*e<#8gf&O=.XX*>uut>*O.o*=--;>>:=-*1;+600&*-X X1u,",
"4a4OX*->,13tyt:-i,@0wq7*;XX.*,tue>OO.o*-;;>>>:-===r:+@@=-Xo X4y1",
"ep3Oo=-;:>1tut>=1>+&00&*-..X=,ti3:*O.O*=-:>>>,;--;;31;-1OOo.o4t1",
"ti2oXO=;,>13tt1>;3-+@@O=X.X.*:tt1;OO.oO=-;;;>>;;--;-tr1=OOo.o2u2",
"tp<o.*=;;;;:<21-;-2;==,OoXo.*,tu3:*O.o***-**--:>-==;-*O=OO*XOeu1",
"4i,oX*===-;>>::--;-,e1*OXooXO,uu1:*O.oO*O*O**-;>,;--:-*=*==.*4p,",
"4y1oo*=**:;--;-;;;=**OOOooo.O:tu1:*OXoooOOuap*;;:<,11;;-==*.*ea3",
"er,Xo*O*==sdd---;>-*=*OooOOXO,ut,>*OXXoo*1---s=,:,,4t2>:;=*X*ta3",
"ti,XXOO*=r>::s-==>;:-**O*OO.*:it,,*OXXXo<:$07;d-;>,1t3,;-=*X*3u1",
"rp2XXOOo3<$07;s**->>:-==*OO.*1ut,,*O..X:-#0gf&;2*;,,42,;==*X*tp2",
"rp3oXoo,>#0gf&-,O-:>:--=*OO.*1iu1,=O.Xo3-@0wq&;3=-:1,,>:--*X*yi2",
"tp3O.o*e:+0wq&;3*=:>:--=OOo.*1pt<,=O.X.==+&00&-,*--;--::-=*X*tp1",
"3u3oXoo;-@&07&->O-,,:;==*OO.=3pe,1=O.XXo:-+@@=-O-=--=*=---*.Oyi1",
"3u3o.oO*1-+@@->O==;;---=OOOX=1pe1,=O.XXOo-*==<O===:--==**=O.*tp1",
"3u3OXOO==1---2=*O---====*Oo.=1pe,:*OXooOOX-1>****=-dss**O*o.Opa,",
"ea1OX**===,t3-=OO=======*OX.=,ie1;*O.oOOOOXXXOO***t:;;a*Ooo.*pi1",
"eu3Oo=----OO*=OO*==*===OOO.X=1pr1;**.oO**ooOO*OOO1,$07-pooX.Oap,",
"eaeoo=;:;;=*=*O**===O**OOX.O=,pr,;*=.oO*O*O***Oo:-#0gf&=;oX *ip<",
"epeoX-;,>,;-=-=****oOOOoX.X*-1u3,-**XoOOOO**=OoO2-+0wq&*,oX.*ip<",
"eu3Oo=;:,1:--;===OOoOoo.X***-3u3,-O*OooooOO**OoX=*+&00&=;oX.*ia1",
"3r1OX=-:,2:;==**OoOOoXXo===*,ry2,=O*ooooXXoOO*oXX>=+@@-:OoX Oyi2",
"1r3OX=-:,1;==**OoOoXO=-,13e3rut21-*->:;--OXooOoXoo-*-=4*OOo.Ott1",
"3t3oX=-;;:-=**OOOoo-,2tyutreupt1,-;eutttte;XXooXXOO>33-**=O.oyr2",
"2t3X.=-;;-=**OOOo*,3yte,==:tr3t22ee33;;:,e3,oXoXXXoooO----*.Oue2",
"1teoX=-;-=**OOOX*,2t3-oXX=3u11te11ert,*=OO:3,ooXXooOO=-;;-*.oye,",
"1t3oo*--=***OOoo,1,-*X.o;3e:=;3t1-=-231;=Xo-3:oXXOO**->;--* oye<",
"1t3oX====*OOOoX*,,=oX.o:et;XXO-r3*o.o=;,;OXX;:;XXoO*==----=.oy4<",
",e1oo*=***OOOoX;1-oX.X-12=X..X=>e:=oXo=:,,*X.;--XXoO***=;=* Ou4,",
",3,OO==***OXoX.O=Oo..X;;OO..XXXOOOOoo.oO===oX.o=*..XO****OO oe,>",
",3,Ooo.....X...XX....XXXXX...XXX. .. .... ...  ..         .XOe2,",
",e1;-=-;;:::;;::::::>>:,,>:;;--==*==***=-==**OO**--;;;*=;;;==231",
",313e3errttrruuipuuuuuupuyyupippueereeerttttrtyuyytttyt4eee11331",
",,,,,,33334ee43333eetuuyuuuyyuyuuuyuytrrtttetyytre3333211,,>:1,,"
};
