/* XPM */
static char *_cce123993314b2ed565ccef9409e2ecFqi3rFo5OoYeHRz1[] = {
/* columns rows colors chars-per-pixel */
"64 64 247 2 ",
"   c #0E0A07",
".  c #0E0A09",
"X  c #160907",
"o  c #140D0A",
"O  c #1B0D0B",
"+  c #15110E",
"@  c #1B130D",
"#  c #161413",
"$  c #1A1615",
"%  c #1C1816",
"&  c #1D1A1A",
"*  c #290706",
"=  c #240C0A",
"-  c #2B0D0B",
";  c #390B07",
":  c #340D0B",
">  c #22150D",
",  c #2B160D",
"<  c #24190E",
"1  c #34130D",
"2  c #3C130D",
"3  c #231511",
"4  c #2C1512",
"5  c #241A13",
"6  c #2B1D13",
"7  c #221D1C",
"8  c #2B1E1A",
"9  c #321C13",
"0  c #381812",
"q  c #311E18",
"w  c #2D2114",
"e  c #25211F",
"r  c #2C211D",
"t  c #342314",
"y  c #3B2515",
"u  c #3D2916",
"i  c #34241C",
"p  c #3C251B",
"a  c #372A1A",
"s  c #3C2A1B",
"d  c #252322",
"f  c #2A2524",
"g  c #2B2827",
"h  c #2E2A29",
"j  c #352924",
"k  c #3C2B24",
"l  c #322D2C",
"z  c #393021",
"x  c #34302F",
"c  c #3C312D",
"v  c #363231",
"b  c #3A3634",
"n  c #3D3936",
"m  c #3E3B39",
"M  c #460805",
"N  c #4C0B06",
"B  c #430C0A",
"V  c #4B0D0A",
"C  c #560B07",
"Z  c #47140C",
"A  c #59140C",
"S  c #471B12",
"D  c #5B1C12",
"F  c #680B07",
"G  c #770A05",
"H  c #651409",
"J  c #771607",
"K  c #6D1C12",
"L  c #432B16",
"P  c #4A2C16",
"I  c #442418",
"U  c #442C1B",
"Y  c #4B2D1B",
"T  c #572817",
"R  c #48331B",
"E  c #4C331C",
"W  c #53341C",
"Q  c #56361C",
"!  c #5C3A1D",
"~  c #672A15",
"^  c #6E3013",
"/  c #442D23",
"(  c #492E25",
")  c #512F23",
"_  c #4C3224",
"`  c #473529",
"'  c #543422",
"]  c #553A23",
"[  c #5C3B22",
"{  c #573728",
"}  c #5C3B2A",
"|  c #433935",
" . c #463934",
".. c #4A3A34",
"X. c #423D3B",
"o. c #533C34",
"O. c #5C3D32",
"+. c #523F39",
"@. c #633D23",
"#. c #643C29",
"$. c #643F32",
"%. c #63411F",
"&. c #5B4126",
"*. c #45413E",
"=. c #4B423D",
"-. c #59453A",
";. c #644223",
":. c #6B4424",
">. c #67462A",
",. c #6B442A",
"<. c #734A26",
"1. c #764829",
"2. c #744C2B",
"3. c #7B4D2B",
"4. c #79532B",
"5. c #7D522B",
"6. c #694637",
"7. c #644A3D",
"8. c #734A33",
"9. c #764836",
"0. c #7C4C33",
"q. c #744C3B",
"w. c #6C5035",
"e. c #7A5237",
"r. c #464340",
"t. c #4A4643",
"y. c #4E4946",
"u. c #4F4B48",
"i. c #564943",
"p. c #534A45",
"a. c #5C4B43",
"s. c #534D4A",
"d. c #5F5143",
"f. c #56514C",
"g. c #5A524D",
"h. c #5C5651",
"j. c #5F5853",
"k. c #644C43",
"l. c #6D4E43",
"z. c #754E41",
"x. c #6E5447",
"c. c #63524B",
"v. c #6B554B",
"b. c #735244",
"n. c #795748",
"m. c #625651",
"M. c #635A55",
"N. c #6B5C54",
"B. c #665D58",
"V. c #695F59",
"C. c #755D53",
"Z. c #7F644F",
"A. c #6E6057",
"S. c #6C625C",
"D. c #72655E",
"F. c #7B6559",
"G. c #746962",
"H. c #766B64",
"J. c #7D716A",
"K. c #880903",
"L. c #980A04",
"P. c #861605",
"I. c #971604",
"U. c #A60903",
"Y. c #B50A02",
"T. c #A71702",
"R. c #B71802",
"E. c #852509",
"W. c #9B2605",
"Q. c #8D350B",
"!. c #A82503",
"~. c #B72603",
"^. c #AB3406",
"/. c #B83503",
"(. c #C50F01",
"). c #C31B01",
"_. c #CB1B01",
"`. c #D71A01",
"'. c #C72701",
"]. c #D72601",
"[. c #DC2C00",
"{. c #C63802",
"}. c #D73701",
"|. c #E32900",
" X c #E73800",
".X c #B74206",
"XX c #83532C",
"oX c #8B562B",
"OX c #88572C",
"+X c #8C5A2D",
"@X c #824C3A",
"#X c #845234",
"$X c #8A5836",
"%X c #945C34",
"&X c #985A38",
"*X c #9C6333",
"=X c #9C6632",
"-X c #986337",
";X c #A66838",
":X c #B46D3B",
">X c #AD723A",
",X c #B8753B",
"<X c #D94401",
"1X c #CC5403",
"2X c #E84800",
"3X c #EA5600",
"4X c #F55600",
"5X c #DC6102",
"6X c #E66B01",
"7X c #F36500",
"8X c #C67B3E",
"9X c #875947",
"0X c #965D46",
"qX c #875E51",
"wX c #8A624A",
"eX c #9A6448",
"rX c #876657",
"tX c #956754",
"yX c #997154",
"uX c #A56747",
"iX c #B97647",
"pX c #A46B54",
"aX c #AF7150",
"sX c #B87956",
"dX c #81756E",
"fX c #907569",
"gX c #B47A65",
"hX c #C57C46",
"jX c #CD7A53",
"kX c #CB833D",
"lX c #BD834E",
"zX c #908279",
"xX c #C98549",
"cX c #D68847",
"vX c #C88956",
"bX c #D39450",
"nX c #D99854",
"mX c #E8984B",
"MX c #E7A858",
"NX c #F0AB53",
"BX c #EBB55B",
"VX c #F2BA5A",
"CX c #CF8369",
"ZX c #E29B65",
"AX c #F6C85E",
"SX c #F2CE66",
"DX c #F7E36D",
/* pixels */
"S.S.S.S.S.S.M.M.h.h.f.u.=.u.u.s.t.r.d & # # & & & & & & & # # & h v *.r.y.h.M.M.V.V.V.B.h.s.u.t.t.u.g.t.m h d l v X.r.u.u.h.S.H.",
"S.S.G.H.G.G.G.M.h.f.s.u.u.=.u.y.X.v g # # & & 7 & & & # & # # 7 h l X.*.y.s.j.B.S.S.D.B.h.h.h.s.u.u.g.g.t.v d & d b X.u.u.s.S.J.",
"G.S.S.S.S.S.S.A.f.u.u.u.*.u.s.*.x g & # # & d d g g h h & # # e h l n *.t.p.f.B.S.H.D.V.M.m.f.u.s.u.f.h.s.b f & d h X.r.u.s.B.dX",
"G.S.V.S.j.S.M.f.u.u.u.*.*.=.s.m h d # # & d g v x x m m d # # 7 f h X.X.=.p.c.V.qXdXrXqXV.B.m.g.g.h.h.h.s.X.h & & d v X.t.u.M.S.",
"S.M.M.B.S.B.g.s.t.t.r.m =.r.m h d & & & 7 f v x g x | y.b $ + & r l =.+.+.i.v.C.qXfXpXfXfXrXC.M.m.m.m.m.f.r.h d & d h v r.t.s.B.",
"h.j.M.V.B.f.s.u.m m m m u.n d d & # & e f l v l v m t.i.X.e $ 7 r  .+.+.a.k.n.qXtXgXCXgXgXfXC.N.h.M.m.g.s.r.h 7 & & d x m m X.u.",
"y.f.h.h.s.u.t.X.n n *.*.m d & & # & e h h v | | X.i.i.c.a./ 7 7 q ( $.O.7.6.z.0XpXjXjXgXpXtXC.N.h.m.m.f.u.X.x 7 & & d v v X.r.t.",
"m y.y.r.r.r.*.n m n b x g d % % & e l l v X.i.+.k.n.l.b.z.o.8 3 r ( $.$.6.z.9X0XgXZXjXsXpXqXn.k.i.i.i.m.u.X.l 7 & & d h x X.X.r.",
"m m r.m r.r.m m v x v d d & # & e x x c n -.l.z.9XpX0XqXz.$.k 6 q ) 9.z.$.@X@X0XuXjXjX0X0X9X6.7.o.+.k.c.+.| g 7 & & & d h v m r.",
"m m m m m m m h g g d & & # & g l b x n -.b.n.9X0XsXaXeX0X@X#.U p ) $.@X#XoX#X&XuXjXjX0X9X9.$.$.o.o.7.k.| j d 7 & & & d g g v b ",
"h v h h h v h h d & & % & & g x c n c =.b.@X9XuXaXCXvXlXhXaX1.P I [ XX&X&X&X*XoX0XaXpX0X0.$.#.O.O.$.$.) i r 7 $ & # & & d & d h ",
"d g d d d g d d & # % % & d x v c =...7.9XwXiXlXvXBXMXMXnXcX%X%.P T @.&X*X:X:X:X:XjX:X0X@X9.$.9.$.$./ p p 8 7 3 & & # & & & & d ",
"& & & & & & & & # # & & d h v m  .-.b.wX-XlXbXmXBXSXBXVXNXmX>X<.T W <.oX+X*X:X8XjXjXhXuX&X#X#X&X@X#.) ) / q 4 7 8 d d d & & & & ",
"& # # & % # & & # % e e d v *.t.-.Z.eXiXlXbXBXVXDXSXSXAXNXmX>X<.E W ! 3.oXoX=X=X8XjXcX,X&X&X&XXX@.~ @.[ T ( ( o.+.| | m x d d & ",
"d d & & & & & % # & & d g n r.-.x.eX>XbXnXMXVXAXDXVXVXNXMXxXOX;.Q ! W ! :.<.oX=X*X*X:X;X&X&X%X1.#.T T W ~ $.9.9.$.i.y.t.r.m m x ",
"m m m v v h d & # % & e g v *.w.-XiXbXnXmXmXmXNXNXmXcXxX>X5.>.R R E W E P W :.<.oXoXQ.+XoX+X1.Q P T ! XX&X&X@X$.z.k.u.u.u.u.u.r.",
"u.r.u.t.r.r.m d $ $ & g h c =.w.-XiXnXmXkX,X,X,X>X-X4.>.&./ s t t t U W ! ! W ! ! %.%.;.] W U y p @.%X:X;X:X&X@X9.7.a.s.s.c.s.s.",
"y.r.u.f.u.r.m h & $ & d j c { e.;X,XkX,X=X*X+X<.} _ s p 0 6 @ @ % 5 a [ %.! E P u u t 9 w y y u ,.%X+X;X:X:X;X$X@Xl.k.g.s.s.s.y.",
"h.j.j.B.j.r.r.m x & & g j c } $X-X-X%XOX:.@.! T F 0 6 C I.P.1 @ = : 6 L W W Q E t < @ @ 5 i R &.2.<.XX;X:X;X;XeX9Xn.c.s.s.h.f.s.",
"j.B.j.B.S.f.r.r. .e 7 e k { ,.#X$X4.<.;.W W D G L.V 1 K.[.}.A ; K.T.A u L L L a 6 @ o + $ 6 i R ] @.1.oX&X;XiXpXwXn.k.f.s.h.M.h.",
"j.j.M.j.B.S.h.t.*.| r i _ #.1.3.4.>.E ] P D J T.K.2 3 G (.Y.M M !.'.F 9 t p u w 6 @ . . + % w a R ,.OX=X:X8XxXlXpXqXv.g.h.h.V.M.",
"f.j.j.j.j.S.G.j.-.7.] s W :.XX%.:.E R U I J ~.).G B 2 2 N ; X X N G : 3 6 8 6 5 @ @ o . o @ 6 t ] 4.+X>X8XcXxXsXpXqXv.g.h.M.M.M.",
"h.f.M.M.h.j.A.d.7.w.#X' E @.XX! ! R s s A ~.|.`.R./.1X/.W.J ; X O @ # $ 5 8 5 < 2 N : B C 2 5 a &.2.OX=X8XmXxXiXaXrXv.f.j.B.M.h.",
"f.h.f.s.s.s.A.Z.wX$X$X[ Y ! :.P E U a I I.}.|.Y.K.I.U.'.{.<X!.C : o o , 2 Z 4 1 I.^.!.I.J , 5 w R 2.+X;XcXkXhXiXuXtXC.g.M.M.j.s.",
"u.u.t.t.*.p.v.yXeX$X5.:.! @.! u u a t H {.|.I.M - - M !.2X3X~.N = O = F I.D 0 E.4X3X'.K.C * @ w R &.OX*X8XhXxXvXsXwXx.N.N.M.h.f.",
"t.r.*.*.=.s.x.eX#XXXXX<.! Q Q y t i S /.}.R.V $ O : I.3X7X<XK.- # O C T.Q.S K 5X4X].G * X o @ % w R ;.2.oX*X,XhXsXwXn.N.A.M.h.f.",
"t.r.m m =.-.-.8.:.<.3.<.P L L w 5 6 J }.'.F = O ; I.5X6X1XC > @ O 3 F T..X^ 5X3X2X'.B O O * + w a R ] ;.1.oX;XiXiXyX9XC.V.j.s.u.",
"r.v v n X. .{ { @.3.3.@.P t w t 3 Z {.[.G - X * I.2X1XE.B @ @ + # 3 F U./.1X6X}.}.'.G G K.M X < t s R W @.1.oXiXsXyXwXx.c.u.y.y.",
"v b x h x x ` ' :.XXXX^ L t t < 4 P. XT.; o X C '.<XJ = # # # @ $ 4 C U.}.6X6XP.U.]._.R.P.*   @ 5 w u R ! ;.3.%XuXeX9Xx.=.=.t.u.",
"x g d g e z / E :.1.<.Q L t w , 2 '.'.C O . X H '.R.; O # 3 5 w 6 q 0 G _.3X{.Z C R._.T.M X   o < 6 y R E :.5.%X&X$Xb.-...X.m n ",
"g d g d d a j s T W P P L t , < 2 T.F = o . X V '.I.B 3 5 w i s L a t S L.].!.1 - G R.E.* o   o @ < w t L &.5.$X2.9.6.` j h h g ",
"d d d d e e r a P P P E P u , < > - = o . . . : T.T.A 0 t U E ;.%.E W T A U.L.- X * G I.N X     X @ w t u W @.@.' ' k j f d d g ",
"7 7 & e 7 5 r U E Q ! ! E P u 9 < @ @ @ o . . > H P.L.J W %.OX=X=XoX5.P 1 N C *     ; F C X X o X < 6 L E &.:.@.W Y p i e e e 7 ",
"f f g g h c ` [ [ :.:.W P L L 9 t 6 < @ + o o @ 5 0 ) ^ <.*X>XkXkX,X<.L < @ O   . .   * * X o @ @ < w t s s U E U U p k f f f h ",
"*.r.=.t.-.-.-.w.3.;.Q W P P p t y t 9 , < @ + @ 8 U Q ;.:.+X>XkX,X+X! t < @ X o . . . o = O > 5 < , , t t u U E ' ' ] -.=. .r.y.",
"s.s.f.f.c.k.w.e.<.&.&.Q W P T / t t w 6 w < 3 > t s R Q %.<.3.XX<.! y , @ o o o o o O 3 1 2 B 0 t t , < 6 t U [ <.,.8.7.-.c.g.f.",
"f.f.M.N.v.e.e.e.3.,.[ T K I.L.P.Z y 6 < , 5 @ > $ 5 t y S D T Y y , = X @ @ o o O O 7 0 A K.K.G N Z , 5 < 6 s @.<.2.6.6.l.c.M.M.",
"j.S.D.F.Z.$X$Xe.,.} T J Y.).L.S t 6 t < < $ $ @ @ @ @ > F L.F = + - N X   X @ @ 3 3 4 4 F T.'.).I.J 2 < < < t ;.2.#Xe.b.x.C.M.B.",
"M.S.F.F.n.e.,.>.' T P.R.].I.2 6 2 M C N , # + + # + o * G U.N X * K.G * o o @ < - V : 4 B G R.[.<XW.0 t 6 > t W #.8.q.q.x.C.N.V.",
"j.A.D.Z.C.w.>.] ' ~ /.[.R.C 0 A G K.G N = o . o # $ o ; P.Y.M * K.L.; X o + + > F K.V 7 8 0 K.}.7X!.0 u t < < y } #.9.6.k.c.M.B.",
"s.j.j.7.7.&.z z U ^ }.[.I.A P.T.Y.K.M O o . o O q 0 Z E.}.}.E.~.[.I.F ; O O # ; L.K.M 4 0 K ).3X3XE.y A H S < t ! } 6.6.-.i.g.h.",
"u.s.u.-.-.&.` z u ^ <X].!.^.'.Y.F - X . . . : I.'.{.<X2X7X7X7X7X2X|._.T.V O O P.).K.C F P.~. X4X~.D S I./.E.y t Y [ } o.o...i.s.",
"s.p.-.-.=.&.z z i ^ <X2X}.].(.K.: o . . X = F `.].`.).].2X2X[.2XR.K.F C - O 1 ~.}.I.G L.'.<X<X^.T t S W./.^ P t U [ } O...+.i.s.",
"u.p.=.-.&.&.z z 6 ^ 1X2X X(.K.C = = * C F K B A A V F ~.}.T.~.{.A 2 ; B : @ B ].{.!.R.{./.Q.~ ) I i u D T W [ Q Y Y ' { ....r.t.",
"X.t.+.O.&.E z w 5 S 1X4X|.K.: M F P.T.!.I.J 2 3 3 9 P.~.~.I.'./.I.I.I.T.L.B H |.{.!.E.^ ) I K I.P.I y U W %.<.2.W Y U k ` | b | ",
"| | | ` z z w 5 3 > ^ 5X|.Y.P.).].'.T.J F 0 < 5 6 S ^./.J I.'./.Y.U.L.G C : K.|.{.T D E.K S I.'.R.K u P Q :.5.+X@.) q 8 f c l v ",
"x k j / / p u i < > 1 Q.}.|.`.`.Y.K.C ; 9 w 6 w 0 J '.W.D U.)./.I.F ; * = - P.`.Y.D I.).R.D ~ !.J I u E Q OX*X+X#.U 8 8 7 e d g ",
"e e 8 8 t y u t 6 < @ 1 Q.<X`.U.N * < < t t t y S U._.D H U.'. X).U.G ; 3 3 H (.U.D I.'..X) i 9 y u L R ;.$X%X0.#.j 8 3 & & & & ",
"& & $ 8 8 t y 0 t < @ @ = W.~.T.C > > w u u u P J (.U.Z F U.I.{.).Y.K.2 < 6 0 P.L.T P T W u a z u R E ;.5.-X$X2.) 8 3 & # $ & & ",
"f f l k / ( ' ' P 6 % + o X ; P.L.Z 9 u P E Q ~ I.U.K S C J Z N B ; - , t u Y W ~ @.;.&.W R R R E Q ! 4.-X&X0.{ p 7 3 7 7 7 d f ",
"l x | ..6.6.8.,.;.&.z w @ + X - F Z y R %.<.4.<.Q.^ Y y y 0 < < @ o @ y R W ;.2.2.e.+X+X4.2.4.4.4.4.4.=X%X3.#./ 6 7 3 e f h x m ",
"l v c ..o.O.$.8.8.e.;.` w < @ < 9 y E <.+X>X>XkXiXOX[ E L t w w < @ @ y ! 2.OX-X=X;X,XxXiX>X=X=X>X=X+X4.XX#X} i 7 5 e g h x n X.",
"b b b | ( o.6.9.e.8.#X0.R w 6 u P W ,.-XiXxXmXMXmX>XOX:.! R u R L t , t @.$X*X=X;XiX,XcXjXcXxXlXlXlX;X$X3.,.( 4 8 f l x x v m X.",
"n X.X. .+.O.$.9.$X-X;X&X;.s P [ @.#.XX>XxXxXBXVXmXxX>X*X3.:.;.:.! R t t W ,.5.%X=X;X8XbXbXxXnXxXlX,X%X-X1.' q 8 j b m n m n m *.",
"t.y.t.i.i.-.k.9.e.eX&X&X&XQ P W @.#.$XiXiXxXMXSXVXmXhX:X5.;.;.;.,.U t y Y #.#.,.#X$X;XiXxXxXjXsX>X-Xe.e.{ p 8 r c | n *.X.*.r.u.",
"h.h.m.m.v.v.z.l.z.wXuXuX;X0.Y I T #.oX:XiXhXnXBXBXmXhX;X#X#Xe.} { U 9 t 0 Y Y ) T #.9.$X&XuXuXaXeX$Xw.&.k 6 8 j | | m X.*.u.f.j.",
"V.H.S.B.m.N.C.C.wXtX0X&X&X@X~ ) / { $.uXhXjXvXnXMXnXhXeX9.9Xq.) _ p 4 8 q q p I k / ) $.$.$.9X0X9Xz.O.( r 8 g b b n m *.t.h.G.G.",
"dXH.V.M.N.C.C.qXtXeX0X0X@X@X@X( I I ) $.0XsXvXvXZXvXuXe.6.6.o./ j i 8 4 6 8 q q q q q j ( O.7.l.6.o. .j 8 e l b v n m r.u.D.J.G.",
"dXH.H.D.H.D.H.fXtXqX0X0X@X@X@X) p q I { 9.qXpXsXsXgX0Xl.7.../ j j q 7 8 8 i j i j q q r q j k ( ( l / d & d x n b n r.t.h.S.D.H.",
"zXdXdXH.H.H.fXfXrXqX9X9X@X@X@X$.( q q q ) $.n.tXyXtXqXk...k d e 7 5 7 8 j l ( k k j r 7 7 8 7 r 8 d f 7 7 d x b v m r.r.g.V.H.J.",
"zXdXJ.D.V.S.D.H.C.qX9X9X@X0X$.$.O.k 8 8 a c -.k.v.C.x. .l d & & % 7 7 g x c | |  .| c h f e 7 7 7 7 7 d & f x *.*.m *.t.f.M.S.dX",
"dXD.D.S.S.D.D.D.v.C.z.9X9X$.9X$.O./ 7 7 & f X.=.p.i.| g d & $ $ % 7 g x | X.y.i.p.y.t.| c l f d d d h d & f x m r.r.r.s.h.j.H.dX",
"S.V.V.S.D.V.V.V.M.C.l.l.x.z.6.$.-.c d & $ & h x x l f e & $ $ $ 7 d v r.y.f.M.V.M.g.s.t.m m m v l h l h d d h b r.r.*.s.M.j.H.dX",
"S.B.V.G.D.B.M.m.m.m.c.c.c.k.i.i.t.| d & # $ 7 & & & 7 7 & & & 7 h h X.u.s.V.J.G.S.V.m.f.p.y.r.m m *.*.v h f g x m r.r.u.f.h.G.J."
};
